<svg width="214" height="62" viewBox="0 0 214 62" fill="none" xmlns="http://www.w3.org/2000/svg">
<path d="M0.977231 62L24.603 0.150431H41.3139L64.9397 62H48.805L43.2347 47.9782H22.5862L17.1119 62H0.977231ZM24.699 36.5495H41.1218L32.8624 15.0366L24.699 36.5495ZM72.7707 62V0.150431H86.0241L112.339 37.1257V0.150431H127.897V62H114.548L88.233 25.1208V62H72.7707ZM137.672 62V0.150431H168.597C175.896 0.150431 181.274 2.07122 184.732 5.91281C188.189 9.7544 189.918 14.9085 189.918 21.3752C189.918 25.5369 188.862 29.1864 186.749 32.3237C184.636 35.461 181.755 37.798 178.105 39.3346C179.002 40.0389 179.706 40.8393 180.218 41.7356C180.794 42.568 181.403 43.7525 182.043 45.2891L189.342 62H173.207L166.292 46.2495C165.716 44.9049 164.98 43.9445 164.083 43.3683C163.187 42.728 161.906 42.4079 160.242 42.4079H153.135V62H137.672ZM153.135 30.499H164.564C167.573 30.499 169.91 29.7627 171.574 28.2901C173.303 26.7534 174.168 24.4485 174.168 21.3752C174.168 15.1646 171.19 12.0594 165.236 12.0594H153.135V30.499ZM197.791 62V0.150431H213.253V62H197.791Z" fill="#e6e6e6"/>
</svg>
