<svg width="200" height="200" viewBox="0 0 200 200" fill="none" xmlns="http://www.w3.org/2000/svg">
<path d="M22.5475 132.865L59.7817 61.773C61.0634 59.2407 63.4238 57.5525 66.8627 56.7084C67.8631 56.4583 69.098 56.3332 70.5674 56.3332C72.0367 56.3332 73.6311 56.7553 75.3506 57.5994C77.1013 58.4122 78.4769 59.7096 79.4773 61.4916L119.431 132.865H81.4L78.4456 125.456H58.1872L55.6549 132.865H22.5475ZM60.4851 110.59H75.632L68.4571 90.3317L60.4851 110.59ZM127.15 57.9745L138.827 81.4686L149.706 57.9745H177.186L140.374 132.771C139.562 134.303 138.139 135.069 136.107 135.069C134.106 135.069 132.715 134.303 131.933 132.771L93.1517 57.9745H127.15Z" fill="black"/>
</svg>
