<svg width="55" height="62" viewBox="0 0 55 62" fill="none" xmlns="http://www.w3.org/2000/svg">
<path d="M0.321786 62V0.150431H32.4951C37.5532 0.150431 41.6829 1.07882 44.8842 2.93559C48.1496 4.79235 50.5826 7.38542 52.1832 10.7148C53.7839 13.9802 54.5842 17.7897 54.5842 22.1435C54.5842 26.3052 53.5278 29.9868 51.4149 33.1881C49.3661 36.3254 46.6129 38.7264 43.1555 40.3911C43.8598 40.9673 44.468 41.6716 44.9802 42.5039C45.4925 43.2723 46.0687 44.3607 46.709 45.7693L53.8159 62H34.9921L28.4614 47.1138C27.9492 45.9614 27.3089 45.161 26.5406 44.7129C25.8363 44.2006 24.8119 43.9445 23.4674 43.9445H18.3773V62H0.321786ZM18.3773 30.1148H27.8852C30.5103 30.1148 32.5271 29.4425 33.9357 28.098C35.4083 26.6894 36.1446 24.7046 36.1446 22.1435C36.1446 16.7013 33.5835 13.9802 28.4614 13.9802H18.3773V30.1148Z" fill="#e6e6e6"/>
</svg>
