<svg width="82" height="77" viewBox="0 0 82 77" fill="none" xmlns="http://www.w3.org/2000/svg">
<path d="M48.2251 25.7913C48.2251 21.3833 46.5838 19.1792 43.3012 19.1792C41.8944 19.1792 39.9405 19.6951 37.4394 20.7267L31.2025 23.3059V41.6416C42.5509 37.4211 48.2251 32.1377 48.2251 25.7913ZM76.0804 26.5885C76.0804 36.5927 71.1408 44.5335 61.2618 50.4109L81.6139 77H44.5674L31.39 55.2879V77H0.768009V2.10967C20.5887 0.702839 33.5784 -0.000576369 39.7372 -0.000576369C45.896 -0.000576369 50.5855 0.374579 53.8056 1.12489C62.6842 3.15698 69.0306 7.50252 72.8447 14.1615C74.9706 17.9756 76.0491 22.1179 76.0804 26.5885Z" fill="white"/>
</svg>
